<?xml version="1.0" standalone="no"?>
<!DOCTYPE svg PUBLIC "-//W3C//DTD SVG 20010904//EN"
 "http://www.w3.org/TR/2001/REC-SVG-20010904/DTD/svg10.dtd">
<svg version="1.0" xmlns="http://www.w3.org/2000/svg"
 width="880.000000pt" height="660.000000pt" viewBox="0 0 880.000000 660.000000"
 preserveAspectRatio="xMidYMid meet">
<metadata>
Created by potrace 1.13, written by Peter Selinger 2001-2015
</metadata>
<g transform="translate(0.000000,660.000000) scale(0.100000,-0.100000)"
fill="#000000" stroke="none">
<path d="M4368 5085 c-42 -7 -107 -23 -145 -35 -67 -22 -187 -82 -198 -99 -2
-5 30 0 73 12 116 31 321 31 417 -1 100 -34 239 -123 264 -171 9 -16 5 -16
-77 0 -219 44 -547 50 -747 14 -276 -49 -534 -148 -722 -277 -199 -136 -419
-408 -515 -638 -13 -31 -6 -25 66 46 118 117 246 178 472 225 144 30 486 37
684 14 308 -35 613 -110 887 -217 l102 -40 -5 -32 c-105 -594 -338 -1188 -615
-1570 -28 -37 -48 -70 -46 -73 11 -10 161 -44 302 -68 151 -25 346 -45 442
-45 l51 0 74 97 c229 306 411 710 501 1112 l24 104 61 -74 c237 -285 258 -657
50 -876 -63 -66 -63 -66 -18 -36 158 107 293 353 341 623 20 110 17 383 -5
494 -55 282 -180 518 -378 720 -81 83 -104 113 -128 169 -94 223 -286 421
-513 527 -202 95 -478 132 -699 95z"/>
<path d="M3056 2011 c157 -378 657 -569 1151 -440 100 26 263 91 328 130 l50
31 -95 -6 c-193 -11 -473 25 -686 87 -59 17 -87 21 -105 14 -13 -5 -69 -11
-124 -14 -188 -9 -343 45 -465 166 -64 63 -68 65 -54 32z"/>
</g>
</svg>
